:SAMPLES-PER-SECOND 30
:FULLY-SPECIFIED
:DEGREES
158
root  -0.961395 30.6203 2.93922 152.623 -49.3268 -160.817
RightUpLeg  -28.3296 -13.1896 13.2555
RightLeg  84.008 1.41168 15.6756
RightFoot  -19.1544 -0.4243 -4.3092
RightToes  5.82063e-011 0 -3.6325e-017
Spine  27.1646 1.47495 1.18501
Spine1  -0.597668 0.499323 7.62107
HEad  -12.9591 46.479 -10.6229
LeftShoulder1  1.36643 -2.53762 -15.8413
LeftArm  -37.5183 22.4107 -33.0227
LeftForeArm  -28.3944 -45.3998 -13.0353
LeftHand  1.25202 8.57774 42.4752
RightShoulder  1.35738 1.97156 18.3136
RightArm  -41.7735 -22.3274 34.8263
RightForeArm  -40.963 47.25 14.4128
RightHand  -2.02379 0.531302 -38.5437
LeftUpLeg  -29.6097 -14.3523 3.95592
LeftLeg  92.083 -3.07675 34.6866
LeftFoot  -16.1319 -0.885914 -23.2109
LeftToes  3.99265e-010 -1.33173e-010 6.75004e-011
159
root  -1.06134 30.5445 3.02886 152.03 -47.8922 -159.793
RightUpLeg  -27.8491 -14.388 13.3515
RightLeg  83.7281 1.74999 18.8905
RightFoot  -19.6553 -0.488626 -4.88964
RightToes  5.82063e-011 0 -3.6325e-017
Spine  27.1284 1.75881 2.8936
Spine1  -0.0409932 1.19835 7.30545
HEad  -14.702 46.017 -11.8705
LeftShoulder1  1.58573 -2.96547 -17.8735
LeftArm  -40.7023 23.4259 -37.0592
LeftForeArm  -36.7846 -36.2396 -9.96797
LeftHand  2.5978 11.3575 46.9649
RightShoulder  1.59852 2.58398 19.8879
RightArm  -39.4997 -23.9801 37.3332
RightForeArm  -48.0889 37.2512 10.6239
RightHand  -1.62436 -0.998325 -41.4748
LeftUpLeg  -29.1809 -15.0493 4.09334
LeftLeg  91.9533 -3.27778 37.4494
LeftFoot  -16.3711 -0.931741 -23.137
LeftToes  3.99265e-010 -1.33173e-010 6.75004e-011
160
root  -1.10786 30.4803 3.23266 152.953 -46.8746 -160.352
RightUpLeg  -28.1141 -14.2366 12.9132
RightLeg  83.6819 1.87569 20.1753
RightFoot  -20.7079 -0.560546 -5.13214
RightToes  5.82063e-011 0 -3.6325e-017
Spine  27.5853 1.83996 4.53709
Spine1  0.395619 1.9652 5.58925
HEad  -18.6369 45.5296 -14.3803
LeftShoulder1  2.00157 -3.9434 -20.4442
LeftArm  -39.2868 22.1184 -41.2059
LeftForeArm  -44.1218 -29.4564 -8.23907
LeftHand  3.23178 12.7988 47.0189
RightShoulder  1.89487 3.26503 21.7527
RightArm  -32.5161 -23.6827 40.635
RightForeArm  -55.1775 29.7132 8.54963
RightHand  -0.90101 -2.9701 -41.7001
LeftUpLeg  -28.8301 -14.814 3.59041
LeftLeg  91.4396 -2.98511 38.4858
LeftFoot  -17.9004 -1.28853 -24.001
LeftToes  3.99265e-010 -1.33173e-010 6.75004e-011
161
root  -1.13898 30.4803 3.48087 155.14 -46.0942 -162.429
RightUpLeg  -28.7157 -12.7804 11.9256
RightLeg  83.6693 1.81754 19.4454
RightFoot  -22.0128 -0.62318 -5.07569
RightToes  5.82063e-011 0 -3.6325e-017
Spine  27.7166 1.58042 5.45549
Spine1  1.21733 2.41423 2.82128
HEad  -23.6544 45.9183 -17.2511
LeftShoulder1  2.35997 -4.65702 -22.644
LeftArm  -32.5565 18.7859 -45.2263
LeftForeArm  -48.4201 -26.7683 -7.67069
LeftHand  3.04535 13.3037 42.0988
RightShoulder  2.10912 3.68197 23.2041
RightArm  -22.2366 -20.6952 45.1192
RightForeArm  -57.7798 26.1782 7.70207
RightHand  -0.554936 -3.80322 -39.7879
LeftUpLeg  -28.5174 -13.5668 2.49711
LeftLeg  90.6488 -2.28452 37.481
LeftFoot  -20.0426 -1.83789 -25.3242
LeftToes  3.99265e-010 -1.33173e-010 6.75004e-011
162
root  -1.17272 30.5732 3.70506 157.447 -45.4868 -165.173
RightUpLeg  -29.1801 -10.7024 10.5935
RightLeg  83.6753 1.6495 17.4609
RightFoot  -22.4728 -0.636414 -4.97037
RightToes  5.82063e-011 0 -3.6325e-017
Spine  27.3145 1.15159 5.2425
Spine1  2.0914 2.38959 0.213112
HEad  -26.0467 47.3516 -17.9138
LeftShoulder1  2.4604 -4.86178 -23.1541
LeftArm  -24.2508 14.0115 -49.419
LeftForeArm  -51.1224 -27.2621 -7.84701
LeftHand  2.31917 13.0173 33.9171
RightShoulder  2.12088 3.74057 23.1132
RightArm  -12.918 -15.9574 50.0803
RightForeArm  -55.741 26.0499 7.63914
RightHand  -0.676096 -3.31827 -37.1009
LeftUpLeg  -28.0412 -11.7785 1.14222
LeftLeg  89.77 -1.50601 35.3199
LeftFoot  -21.5083 -2.32764 -27.1378
LeftToes  3.99265e-010 -1.33173e-010 6.75004e-011
163
root  -1.17986 30.7254 3.85053 158.467 -45.089 -167.481
RightUpLeg  -29.1325 -8.82265 9.40633
RightLeg  83.9682 1.4151 15.6131
RightFoot  -20.9341 -0.543125 -4.77187
RightToes  5.82063e-011 0 -3.6325e-017
Spine  26.9535 0.900166 3.92617
Spine1  2.74473 2.02038 -0.916308
HEad  -24.0796 49.045 -15.4331
LeftShoulder1  2.34277 -4.87642 -21.6106
LeftArm  -17.674 9.39166 -52.6923
LeftForeArm  -52.5243 -31.5883 -9.02564
LeftHand  1.27589 11.2732 24.7646
RightShoulder  2.01255 3.69516 21.7115
RightArm  -8.39812 -11.9351 53.1281
RightForeArm  -49.5582 30.383 8.64733
RightHand  -0.822955 -2.5641 -33.0765
LeftUpLeg  -27.2465 -10.1579 0.0596886
LeftLeg  89.3215 -1.1224 33.4006
LeftFoot  -20.8468 -2.36217 -29.3424
LeftToes  3.99265e-010 -1.33173e-010 6.75004e-011
164
root  -1.13689 30.8882 3.87618 157.442 -45.0702 -168.361
RightUpLeg  -28.2877 -7.91659 8.91798
RightLeg  84.4058 1.24102 14.8619
RightFoot  -17.7205 -0.347141 -4.03416
RightToes  5.82063e-011 0 -3.6325e-017
Spine  26.9399 0.99736 1.93836
Spine1  3.67675 1.45073 0.0915303
HEad  -20.2991 49.8923 -11.9158
LeftShoulder1  2.09421 -4.74955 -18.835
LeftArm  -15.1105 6.74384 -53.2761
LeftForeArm  -46.0966 -41.7086 -12.2539
LeftHand  0.427858 8.42287 16.8616
RightShoulder  1.90533 3.69613 20.108
RightArm  -9.26018 -10.35 52.3213
RightForeArm  -38.3858 40.2405 11.4849
RightHand  -0.814445 -2.06831 -27.9866
LeftUpLeg  -26.3621 -9.46448 -0.196513
LeftLeg  89.6895 -1.32603 32.3912
LeftFoot  -17.6206 -1.64332 -31.132
LeftToes  3.99265e-010 -1.33173e-010 6.75004e-011
165
root  -1.08963 31.0603 3.77272 154.666 -45.4893 -167.173
RightUpLeg  -26.7317 -8.65865 9.43429
RightLeg  84.3186 1.27657 15.0178
RightFoot  -14.3362 -0.179123 -3.20463
RightToes  5.82063e-011 0 -3.6325e-017
Spine  26.7738 1.35739 0.228491
Spine1  5.05929 0.860233 2.84946
HEad  -17.2689 49.6745 -9.26937
LeftShoulder1  1.73978 -4.18857 -15.8356
LeftArm  -16.6574 6.43822 -50.6101
LeftForeArm  -30.1737 -55.1747 -18.597
LeftHand  -0.0311427 5.25243 11.6731
RightShoulder  1.75911 3.47272 18.7538
RightArm  -13.099 -11.026 48.1808
RightForeArm  -26.0514 52.5452 16.6181
RightHand  -0.781415 -1.61372 -23.8554
LeftUpLeg  -25.786 -10.3828 0.655875
LeftLeg  90.5068 -1.84039 32.294
LeftFoot  -12.8301 -0.35337 -32.2125
LeftToes  3.99265e-010 -1.33173e-010 6.75004e-011
166
root  -1.11122 31.2177 3.58311 151.33 -45.853 -164.499
RightUpLeg  -25.1418 -10.8833 10.5886
RightLeg  83.7206 1.5075 15.8693
RightFoot  -11.5984 -0.0837144 -3.38538
RightToes  5.82063e-011 0 -3.6325e-017
Spine  26.0564 1.94489 -0.530247
Spine1  5.84353 0.640552 6.09082
HEad  -14.0262 48.857 -6.61919
LeftShoulder1  1.35989 -3.22621 -13.2003
LeftArm  -20.5085 8.33677 -45.8756
LeftForeArm  -13.7908 -65.907 -28.0973
LeftHand  -0.276724 2.30278 9.97507
RightShoulder  1.54243 2.89588 17.5547
RightArm  -18.1415 -13.302 42.7517
RightForeArm  -18.5755 61.3365 22.7884
RightHand  -0.960686 -0.444751 -22.3945
LeftUpLeg  -25.5201 -12.6964 2.11888
LeftLeg  91.1891 -2.36739 33.5198
LeftFoot  -8.01908 1.03963 -33.2659
LeftToes  3.99265e-010 -1.33173e-010 6.75004e-011
